<svg width="126" height="19" viewBox="0 0 126 19" fill="none" xmlns="http://www.w3.org/2000/svg">
<g id="Texto">
<g id="AluraGeek">
<path d="M78.0805 16.5C76.664 17.9167 75.014 18.625 73.1308 18.625C71.9642 18.625 70.8643 18.3917 69.831 17.925C68.8144 17.4584 67.9228 16.8167 67.1562 16C66.4062 15.1834 65.8062 14.225 65.3563 13.125C64.923 12.0084 64.7063 10.8084 64.7063 9.52503C64.7063 8.30837 64.923 7.1667 65.3563 6.10003C65.8062 5.0167 66.4145 4.07503 67.1812 3.27503C67.9644 2.45836 68.8811 1.8167 69.931 1.35003C70.9809 0.866697 72.1225 0.62503 73.3558 0.62503C75.0224 0.62503 76.4473 0.97503 77.6306 1.67503C78.8305 2.37503 79.7305 3.3167 80.3304 4.50003L77.7556 6.40003C77.3056 5.5167 76.6723 4.8417 75.8557 4.37503C75.0557 3.90836 74.1808 3.67503 73.2308 3.67503C72.4809 3.67503 71.7892 3.83336 71.1559 4.15003C70.5393 4.4667 70.006 4.90003 69.556 5.45003C69.1227 6.00003 68.7811 6.63337 68.5311 7.35003C68.2978 8.0667 68.1811 8.82503 68.1811 9.62503C68.1811 10.4584 68.3144 11.2417 68.5811 11.975C68.8477 12.6917 69.2144 13.3167 69.681 13.85C70.1477 14.3834 70.6976 14.8084 71.3309 15.125C71.9809 15.425 72.6809 15.575 73.4308 15.575C75.1474 15.575 76.6973 14.7667 78.0805 13.15V11.9H74.5057V9.37503H80.9304V18.5H78.0805V16.5Z" fill="#464646"/>
<path d="M89.6201 18.75C88.5702 18.75 87.6202 18.575 86.7703 18.225C85.9203 17.8584 85.1954 17.3667 84.5954 16.75C83.9954 16.1334 83.5288 15.4167 83.1955 14.6C82.8788 13.7834 82.7205 12.925 82.7205 12.025C82.7205 11.0917 82.8788 10.2167 83.1955 9.40003C83.5121 8.5667 83.9704 7.8417 84.5704 7.22503C85.1704 6.5917 85.8953 6.0917 86.7453 5.72503C87.6119 5.35836 88.5785 5.17503 89.6451 5.17503C90.7117 5.17503 91.6617 5.35836 92.495 5.72503C93.3449 6.0917 94.0616 6.58337 94.6449 7.20003C95.2448 7.8167 95.6948 8.53337 95.9948 9.35003C96.3114 10.1667 96.4697 11.0167 96.4697 11.9C96.4697 12.1167 96.4614 12.325 96.4447 12.525C96.4447 12.725 96.4281 12.8917 96.3948 13.025H86.2703C86.3203 13.5417 86.4453 14 86.6453 14.4C86.8453 14.8 87.1036 15.1417 87.4203 15.425C87.7369 15.7084 88.0952 15.925 88.4952 16.075C88.8952 16.225 89.3118 16.3 89.7451 16.3C90.4118 16.3 91.0367 16.1417 91.62 15.825C92.22 15.4917 92.6283 15.0584 92.845 14.525L95.7198 15.325C95.2365 16.325 94.4615 17.15 93.3949 17.8C92.345 18.4334 91.0867 18.75 89.6201 18.75ZM93.0199 10.85C92.9366 9.8667 92.57 9.08337 91.92 8.50003C91.2867 7.90003 90.5117 7.60003 89.5951 7.60003C89.1452 7.60003 88.7202 7.68337 88.3202 7.85003C87.9369 8.00003 87.5952 8.2167 87.2953 8.50003C86.9953 8.78337 86.7453 9.12503 86.5453 9.52503C86.362 9.92503 86.2537 10.3667 86.2203 10.85H93.0199Z" fill="#464646"/>
<path d="M104.585 18.75C103.535 18.75 102.585 18.575 101.735 18.225C100.885 17.8584 100.16 17.3667 99.5604 16.75C98.9604 16.1334 98.4938 15.4167 98.1605 14.6C97.8438 13.7834 97.6855 12.925 97.6855 12.025C97.6855 11.0917 97.8438 10.2167 98.1605 9.40003C98.4771 8.5667 98.9354 7.8417 99.5354 7.22503C100.135 6.5917 100.86 6.0917 101.71 5.72503C102.577 5.35836 103.543 5.17503 104.61 5.17503C105.677 5.17503 106.627 5.35836 107.46 5.72503C108.31 6.0917 109.027 6.58337 109.61 7.20003C110.21 7.8167 110.66 8.53337 110.96 9.35003C111.276 10.1667 111.435 11.0167 111.435 11.9C111.435 12.1167 111.426 12.325 111.41 12.525C111.41 12.725 111.393 12.8917 111.36 13.025H101.235C101.285 13.5417 101.41 14 101.61 14.4C101.81 14.8 102.069 15.1417 102.385 15.425C102.702 15.7084 103.06 15.925 103.46 16.075C103.86 16.225 104.277 16.3 104.71 16.3C105.377 16.3 106.002 16.1417 106.585 15.825C107.185 15.4917 107.593 15.0584 107.81 14.525L110.685 15.325C110.201 16.325 109.427 17.15 108.36 17.8C107.31 18.4334 106.052 18.75 104.585 18.75ZM107.985 10.85C107.902 9.8667 107.535 9.08337 106.885 8.50003C106.252 7.90003 105.477 7.60003 104.56 7.60003C104.11 7.60003 103.685 7.68337 103.285 7.85003C102.902 8.00003 102.56 8.2167 102.26 8.50003C101.96 8.78337 101.71 9.12503 101.51 9.52503C101.327 9.92503 101.219 10.3667 101.185 10.85H107.985Z" fill="#464646"/>
<path d="M122.425 18.5L118.625 12.825L116.825 14.6V18.5H113.475V0.250031H116.825V11.325L122.075 5.42503H125.65L120.775 10.975L126 18.5H122.425Z" fill="#464646"/>
</g>
<g id="AluraGeek_2">
<path d="M6.77169 0.75003H9.82152L16.5711 18.5H13.0213L11.3714 14.075H5.17178L3.54687 18.5H-0.00292969L6.77169 0.75003ZM10.7465 11.65L8.2966 4.67503L5.74675 11.65H10.7465Z" fill="#2A7AE4"/>
<path d="M18.1679 0.250031H21.5177V14.3C21.5177 14.7834 21.6344 15.1584 21.8677 15.425C22.101 15.6917 22.4343 15.825 22.8677 15.825C23.0676 15.825 23.2843 15.7917 23.5176 15.725C23.7676 15.6584 24.0009 15.575 24.2176 15.475L24.6676 18.025C24.2176 18.2417 23.6926 18.4084 23.0926 18.525C22.4927 18.6417 21.951 18.7 21.4677 18.7C20.4178 18.7 19.6012 18.425 19.0179 17.875C18.4512 17.3084 18.1679 16.5084 18.1679 15.475V0.250031Z" fill="#2A7AE4"/>
<path d="M30.1268 18.75C28.7769 18.75 27.7519 18.3167 27.052 17.45C26.352 16.5834 26.002 15.3 26.002 13.6V5.40003H29.3519V12.875C29.3519 14.8917 30.0768 15.9 31.5267 15.9C32.1767 15.9 32.8017 15.7084 33.4016 15.325C34.0183 14.925 34.5182 14.325 34.9015 13.525V5.40003H38.2514V14.65C38.2514 15 38.3097 15.25 38.4263 15.4C38.5597 15.55 38.768 15.6334 39.0513 15.65V18.5C38.718 18.5667 38.4347 18.6084 38.2014 18.625C37.9847 18.6417 37.7847 18.65 37.6014 18.65C37.0014 18.65 36.5098 18.5167 36.1265 18.25C35.7598 17.9667 35.5432 17.5834 35.4765 17.1L35.4015 16.05C34.8182 16.95 34.0683 17.625 33.1516 18.075C32.235 18.525 31.2268 18.75 30.1268 18.75Z" fill="#2A7AE4"/>
<path d="M49.3798 8.30003C48.3632 8.3167 47.4549 8.5167 46.655 8.90003C45.855 9.2667 45.2801 9.82503 44.9301 10.575V18.5H41.5803V5.40003H44.6551V8.20003C44.8884 7.75003 45.1634 7.35003 45.48 7.00003C45.7967 6.63337 46.1383 6.3167 46.505 6.05003C46.8716 5.78337 47.2383 5.58337 47.6049 5.45003C47.9882 5.30003 48.3549 5.22503 48.7049 5.22503C48.8882 5.22503 49.0215 5.22503 49.1048 5.22503C49.2048 5.22503 49.2965 5.23337 49.3798 5.25003V8.30003Z" fill="#2A7AE4"/>
<path d="M54.6516 18.75C54.0183 18.75 53.4267 18.65 52.8767 18.45C52.3267 18.2334 51.8518 17.9417 51.4518 17.575C51.0518 17.1917 50.7352 16.75 50.5018 16.25C50.2852 15.75 50.1769 15.2 50.1769 14.6C50.1769 13.9834 50.3102 13.4167 50.5768 12.9C50.8601 12.3667 51.2435 11.9167 51.7268 11.55C52.2267 11.1834 52.8184 10.9 53.5017 10.7C54.185 10.4834 54.9349 10.375 55.7515 10.375C56.3348 10.375 56.9015 10.425 57.4514 10.525C58.0181 10.625 58.518 10.7667 58.9514 10.95V10.2C58.9514 9.33337 58.7014 8.6667 58.2014 8.20003C57.7181 7.73336 56.9931 7.50003 56.0265 7.50003C55.3266 7.50003 54.6433 7.62503 53.9766 7.87503C53.31 8.12503 52.6267 8.4917 51.9268 8.97503L50.9018 6.85003C52.585 5.73336 54.4016 5.17503 56.3515 5.17503C58.2347 5.17503 59.693 5.6417 60.7263 6.57503C61.7762 7.4917 62.3012 8.82503 62.3012 10.575V14.65C62.3012 15 62.3595 15.25 62.4762 15.4C62.6095 15.55 62.8178 15.6334 63.1011 15.65V18.5C62.5345 18.6167 62.0429 18.675 61.6262 18.675C60.9929 18.675 60.5013 18.5334 60.1513 18.25C59.818 17.9667 59.6096 17.5917 59.5263 17.125L59.4513 16.4C58.868 17.1667 58.1597 17.75 57.3265 18.15C56.4932 18.55 55.6015 18.75 54.6516 18.75ZM55.6015 16.3C56.1682 16.3 56.7015 16.2 57.2015 16C57.7181 15.8 58.1181 15.5334 58.4014 15.2C58.768 14.9167 58.9514 14.6 58.9514 14.25V12.75C58.5514 12.6 58.1181 12.4834 57.6514 12.4C57.1848 12.3 56.7348 12.25 56.3015 12.25C55.4349 12.25 54.7266 12.45 54.1766 12.85C53.6267 13.2334 53.3517 13.725 53.3517 14.325C53.3517 14.8917 53.5683 15.3667 54.0016 15.75C54.4349 16.1167 54.9683 16.3 55.6015 16.3Z" fill="#2A7AE4"/>
</g>
</g>
</svg>
